<?xml version="1.0" encoding="utf-8"?>
<!-- Generator: Adobe Illustrator 24.0.2, SVG Export Plug-In . SVG Version: 6.00 Build 0)  -->
<svg version="1.1" id="Capa_1" xmlns="http://www.w3.org/2000/svg" xmlns:xlink="http://www.w3.org/1999/xlink" x="0px" y="0px"
	 viewBox="0 0 60 60" style="enable-background:new 0 0 60 60;" xml:space="preserve">
<style type="text/css">
	.st0{fill:#1337EC;}
	.st1{fill:#FFFFFF;}
</style>
<path class="st0" d="M60,50c0,5.5-4.5,10-10,10H10C4.5,60,0,55.5,0,50V10C0,4.5,4.5,0,10,0h40c5.5,0,10,4.5,10,10V50z"/>
<path class="st1" d="M10.7,15.4l1.4,2.8l3.1,0.4l-2.3,2.1l0.6,3l-2.8-1.5l-2.8,1.5l0.6-3l-2.3-2.1l3.1-0.4L10.7,15.4z"/>
<path class="st1" d="M41.3,9.5l1,2l2.3,0.3l-1.7,1.5l0.4,2.2l-2-1.1l-2,1.1l0.4-2.2L38,11.8l2.3-0.3L41.3,9.5z"/>
<g>
	<path class="st1" d="M9.5,41.5c-0.8,0-1.6-0.4-2.1-1.1c-0.8-1.1-0.5-2.7,0.7-3.5l12-8c0.7-0.5,1.7-0.6,2.5-0.2l10.3,5.1l10.7-12.5
		c0.9-1,2.3-1.2,3.4-0.4l8,6c1.1,0.8,1.3,2.4,0.5,3.5s-2.4,1.3-3.5,0.5l-6.1-4.6L35.4,38.6c-0.7,0.9-2,1.1-3,0.6l-10.7-5.4L10.9,41
		C10.5,41.4,10,41.5,9.5,41.5z"/>
</g>
<circle class="st1" cx="9.5" cy="39" r="4"/>
<circle class="st1" cx="21.5" cy="31" r="4"/>
<circle class="st1" cx="33.5" cy="37" r="4"/>
<circle class="st1" cx="45.5" cy="23" r="4"/>
<circle class="st1" cx="53.5" cy="29" r="4"/>
</svg>
